<svg width="206" height="34" viewBox="0 0 206 34" fill="none" xmlns="http://www.w3.org/2000/svg">
<path d="M7.256 28.296L11.432 27.144V6.36L7.4 6.696L3.848 10.968L0.344 10.68C0.344 8.024 0.472 4.68 0.728 0.647999H30.776C31.032 4.68 31.16 8.024 31.16 10.68L27.704 10.968L24.104 6.696L20.168 6.36V25.224C20.168 25.992 20.216 26.488 20.312 26.712C20.408 26.936 20.68 27.16 21.128 27.384L24.104 29.16L23.912 33H7.496L7.256 28.296ZM43.0816 33.624C39.0176 33.624 35.9776 32.584 33.9616 30.504C31.9776 28.424 30.9856 25.24 30.9856 20.952C30.9856 18.2 31.4816 15.8 32.4736 13.752C33.4976 11.704 34.9536 10.136 36.8416 9.048C38.7296 7.96 40.9536 7.416 43.5136 7.416C51.8016 7.416 55.9456 11.704 55.9456 20.28C55.9456 24.472 54.8096 27.752 52.5376 30.12C50.2976 32.456 47.1456 33.624 43.0816 33.624ZM43.8496 28.008C44.4896 28.008 45.0496 27.96 45.5296 27.864C46.0096 27.736 46.5216 27.544 47.0656 27.288C47.2576 26.552 47.4176 25.608 47.5456 24.456C47.6736 23.304 47.7376 22.2 47.7376 21.144C47.7376 18.552 47.3216 16.584 46.4896 15.24C45.6896 13.896 44.4896 13.224 42.8896 13.224C41.8336 13.224 40.7616 13.368 39.6736 13.656C39.4496 14.136 39.2736 14.92 39.1456 16.008C39.0176 17.064 38.9536 18.28 38.9536 19.656C38.9536 22.344 39.3696 24.408 40.2016 25.848C41.0656 27.288 42.2816 28.008 43.8496 28.008ZM67.8961 33.144C64.4401 33.144 61.2561 33 58.3441 32.712L58.1041 28.104L61.6081 27.144V8.856C61.6081 8.024 61.5441 7.48 61.4161 7.224C61.2881 6.936 60.9521 6.68 60.4081 6.456L57.9121 5.064L58.2001 1.08C61.5281 0.823998 64.3281 0.631998 66.6001 0.503998C68.8721 0.343998 70.6961 0.263998 72.0721 0.263998C76.4881 0.263998 80.0241 0.775998 82.6801 1.8C85.3681 2.824 87.3201 4.44 88.5361 6.648C89.7841 8.856 90.4081 11.784 90.4081 15.432C90.4081 20.04 89.3521 23.768 87.2401 26.616C85.3521 29.08 82.8401 30.792 79.7041 31.752C76.6001 32.68 72.6641 33.144 67.8961 33.144ZM73.9441 26.28C76.6321 26.28 78.7601 25.96 80.3281 25.32C80.6161 24.52 80.8721 23.272 81.0961 21.576C81.3521 19.88 81.4801 18.296 81.4801 16.824C81.4801 13.208 80.7281 10.536 79.2241 8.808C77.7521 7.08 75.4961 6.216 72.4561 6.216C72.0401 6.216 71.6561 6.232 71.3041 6.264C70.9521 6.296 70.6161 6.328 70.2961 6.36V26.04C71.5761 26.2 72.7921 26.28 73.9441 26.28ZM105.988 33.624C101.924 33.624 98.8839 32.584 96.8679 30.504C94.8839 28.424 93.8919 25.24 93.8919 20.952C93.8919 18.2 94.3879 15.8 95.3799 13.752C96.4039 11.704 97.8599 10.136 99.7479 9.048C101.636 7.96 103.86 7.416 106.42 7.416C114.708 7.416 118.852 11.704 118.852 20.28C118.852 24.472 117.716 27.752 115.444 30.12C113.204 32.456 110.052 33.624 105.988 33.624ZM106.756 28.008C107.396 28.008 107.956 27.96 108.436 27.864C108.916 27.736 109.428 27.544 109.972 27.288C110.164 26.552 110.324 25.608 110.452 24.456C110.58 23.304 110.644 22.2 110.644 21.144C110.644 18.552 110.228 16.584 109.396 15.24C108.596 13.896 107.396 13.224 105.796 13.224C104.74 13.224 103.668 13.368 102.58 13.656C102.356 14.136 102.18 14.92 102.052 16.008C101.924 17.064 101.86 18.28 101.86 19.656C101.86 22.344 102.276 24.408 103.108 25.848C103.972 27.288 105.188 28.008 106.756 28.008ZM120.331 6.264L118.747 4.008L118.939 0.647999H132.763L133.243 5.208L129.835 6.072L136.219 24.264L141.931 7.704C142.027 7.448 142.075 7.224 142.075 7.032C142.075 6.616 141.883 6.344 141.499 6.216L138.187 4.872L138.523 0.647999H151.051L151.339 4.728L149.227 7.416L138.763 33.144L130.507 33.864L120.331 6.264ZM162.122 33.672C159.562 33.672 157.658 32.92 156.41 31.416C155.162 29.88 154.538 27.576 154.538 24.504V15.912C154.538 15.208 154.474 14.76 154.346 14.568C154.25 14.344 153.978 14.104 153.53 13.848L151.37 12.696L151.61 9.096C152.058 9.032 152.378 8.968 152.57 8.904C152.922 8.84 154.17 8.616 156.314 8.232C158.49 7.848 160.298 7.624 161.738 7.56C162.09 8.36 162.362 9.288 162.554 10.344V22.44C162.554 23.848 162.586 24.84 162.65 25.416C162.746 25.992 163.002 26.44 163.418 26.76C163.866 27.048 164.618 27.192 165.674 27.192C167.21 27.192 168.698 26.92 170.138 26.376V15.912C170.138 15.208 170.09 14.76 169.994 14.568C169.898 14.344 169.642 14.104 169.226 13.848L167.114 12.696L167.306 9.096C169.898 8.616 171.914 8.248 173.354 7.992C174.826 7.736 176.17 7.592 177.386 7.56C177.738 8.36 178.01 9.288 178.202 10.344V26.088C178.202 26.664 178.25 27.064 178.346 27.288C178.442 27.512 178.666 27.736 179.018 27.96L180.938 29.064L180.794 32.04C179.418 32.392 177.834 32.712 176.042 33C174.25 33.256 172.586 33.416 171.05 33.48C170.922 33.096 170.778 32.616 170.618 32.04C170.586 31.784 170.506 31.48 170.378 31.128H170.234C168.922 31.896 167.53 32.52 166.058 33C164.618 33.448 163.306 33.672 162.122 33.672ZM194.291 33.576C190.547 33.576 187.651 32.44 185.603 30.168C183.587 27.896 182.579 24.76 182.579 20.76C182.579 17.976 183.075 15.592 184.067 13.608C185.059 11.592 186.467 10.056 188.291 9C190.115 7.944 192.243 7.416 194.675 7.416C198.291 7.416 201.059 8.568 202.979 10.872C204.931 13.176 205.859 16.456 205.763 20.712L191.171 23.4C191.619 24.744 192.243 25.736 193.043 26.376C193.875 26.984 194.963 27.288 196.307 27.288C197.235 27.288 198.339 27.16 199.619 26.904C200.899 26.616 202.195 26.232 203.507 25.752L204.611 30.504C203.427 31.4 201.891 32.136 200.003 32.712C198.115 33.288 196.211 33.576 194.291 33.576ZM197.891 16.68C197.827 15.464 197.475 14.584 196.835 14.04C196.227 13.464 195.363 13.176 194.243 13.176C193.315 13.176 192.435 13.304 191.603 13.56C190.931 15.128 190.627 16.824 190.691 18.648L197.891 16.68Z" fill="#5F5CED"/>
</svg>
